<svg xmlns="http://www.w3.org/2000/svg" width="48" height="48" viewBox="0 0 48 48"><g transform="translate(-9694 4059)"><g transform="translate(9702 -4051)"><path d="M23.74,16.18a1,1,0,1,0-1.41,1.42A9,9,0,0,1,25,24c0,1.22-3.51,3-9,3s-9-1.78-9-3a9,9,0,0,1,2.63-6.37,1,1,0,0,0-1.41-1.41A10.92,10.92,0,0,0,5,24c0,3.25,5.67,5,11,5s11-1.75,11-5a10.94,10.94,0,0,0-3.26-7.82Z"/><path d="M16,17a7,7,0,1,0-7-7A7,7,0,0,0,16,17ZM16,5a5,5,0,1,1-5,5A5,5,0,0,1,16,5Z"/></g><g transform="translate(9694 -4059)"><path d="M0,0H48V48H0Z" fill="none"/><path d="M14,19a1,1,0,1,0,1,1A1,1,0,0,0,14,19Zm0,8a1,1,0,1,0,1,1A1,1,0,0,0,14,27Zm6-12a1,1,0,1,0-1-1A1,1,0,0,0,20,15Zm8,0a1,1,0,1,0-1-1A1,1,0,0,0,28,15Zm6,12a1,1,0,1,0,1,1A1,1,0,0,0,34,27Zm0-8a1,1,0,1,0,1,1A1,1,0,0,0,34,19Z"/><path d="M14,19a1,1,0,1,0,1,1A1,1,0,0,0,14,19Zm0,8a1,1,0,1,0,1,1A1,1,0,0,0,14,27Zm6-12a1,1,0,1,0-1-1A1,1,0,0,0,20,15Zm8,0a1,1,0,1,0-1-1A1,1,0,0,0,28,15Zm6,12a1,1,0,1,0,1,1A1,1,0,0,0,34,27Zm0-8a1,1,0,1,0,1,1A1,1,0,0,0,34,19Z" transform="translate(0 -8)"/><path d="M14,19a1,1,0,1,0,1,1A1,1,0,0,0,14,19Zm0,8a1,1,0,1,0,1,1A1,1,0,0,0,14,27Zm6-12a1,1,0,1,0-1-1A1,1,0,0,0,20,15Zm8,0a1,1,0,1,0-1-1A1,1,0,0,0,28,15Z" transform="translate(-8 -8)"/><path d="M28,19a1,1,0,1,1-1,1A1,1,0,0,1,28,19Zm0,8a1,1,0,1,1-1,1A1,1,0,0,1,28,27ZM22,15a1,1,0,1,1,1-1A1,1,0,0,1,22,15Zm-8,0a1,1,0,1,1,1-1A1,1,0,0,1,14,15Z" transform="translate(14 -8)"/><path d="M28,19a1,1,0,1,1-1,1A1,1,0,0,1,28,19Zm0,8a1,1,0,1,1-1,1A1,1,0,0,1,28,27Z" transform="translate(11 6)"/><path d="M28,19a1,1,0,1,1-1,1A1,1,0,0,1,28,19Zm0,8a1,1,0,1,1-1,1A1,1,0,0,1,28,27Z" transform="translate(-19 6)"/></g></g></svg>