<svg xmlns="http://www.w3.org/2000/svg" width="48" height="48" viewBox="0 0 48 48"><g transform="translate(-9622 4063)"><g transform="translate(9622 -4063)"><path d="M12,26a2,2,0,1,0,2,2A2.006,2.006,0,0,0,12,26Zm0,8a2,2,0,1,0,2,2A2.006,2.006,0,0,0,12,34Zm0-16a2,2,0,1,0,2,2A2.006,2.006,0,0,0,12,18ZM6,19a1,1,0,1,0,1,1A1,1,0,0,0,6,19Zm6-9a2,2,0,1,0,2,2A2.006,2.006,0,0,0,12,10ZM42,21a1,1,0,1,0-1-1A1,1,0,0,0,42,21ZM28,14a2,2,0,1,0-2-2A2.006,2.006,0,0,0,28,14Zm0-7a1,1,0,1,0-1-1A1,1,0,0,0,28,7ZM6,27a1,1,0,1,0,1,1A1,1,0,0,0,6,27ZM20,41a1,1,0,1,0,1,1A1,1,0,0,0,20,41ZM20,7a1,1,0,1,0-1-1A1,1,0,0,0,20,7Zm0,7a2,2,0,1,0-2-2A2.006,2.006,0,0,0,20,14ZM36,26a2,2,0,1,0,2,2A2.006,2.006,0,0,0,36,26Zm0,8a2,2,0,1,0,2,2A2.006,2.006,0,0,0,36,34Zm0-16a2,2,0,1,0,2,2A2.006,2.006,0,0,0,36,18Zm0-8a2,2,0,1,0,2,2A2.006,2.006,0,0,0,36,10Zm6,17a1,1,0,1,0,1,1A1,1,0,0,0,42,27ZM28,41a1,1,0,1,0,1,1A1,1,0,0,0,28,41Z"/><path d="M0,0H48V48H0Z" fill="none"/></g><path d="M23.74,16.18a1,1,0,1,0-1.41,1.42A9,9,0,0,1,25,24c0,1.22-3.51,3-9,3s-9-1.78-9-3a9,9,0,0,1,2.63-6.37,1,1,0,0,0-1.41-1.41A10.92,10.92,0,0,0,5,24c0,3.25,5.67,5,11,5s11-1.75,11-5a10.94,10.94,0,0,0-3.26-7.82Z" transform="translate(9630 -4051)"/><path d="M16,17a7,7,0,1,0-7-7A7,7,0,0,0,16,17ZM16,5a5,5,0,1,1-5,5A5,5,0,0,1,16,5Z" transform="translate(9630 -4051)"/></g></svg>