<svg xmlns="http://www.w3.org/2000/svg" enable-background="new 0 0 128 128" viewBox="0 0 128 128" id="analytics"><polygon points="48.405 105.877 56.674 105.877 56.674 80.939 48.405 83.798" fill="#ffffff" class="color000000 svgShape"></polygon><polygon points="86.165 105.877 94.435 105.877 94.435 64.674 86.165 67.533" fill="#ffffff" class="color000000 svgShape"></polygon><polygon points="67.285 105.877 75.555 105.877 75.555 72.807 67.285 75.666" fill="#ffffff" class="color000000 svgShape"></polygon><path d="M34.147,42.779c2.094,0,4.063-0.817,5.544-2.301c3.06-3.068,3.06-8.058,0-11.125c-1.481-1.484-3.45-2.301-5.544-2.301
			s-4.063,0.817-5.544,2.301c-3.06,3.068-3.06,8.058,0,11.125C30.085,41.962,32.054,42.779,34.147,42.779z" fill="#ffffff" class="color000000 svgShape"></path><polygon points="29.524 105.877 37.794 105.877 37.794 88.477 29.524 91.336" fill="#ffffff" class="color000000 svgShape"></polygon><path d="M107.496 27.841c-1.284 0-2.492.5-3.399 1.408-.909.908-1.409 2.115-1.409 3.399 0 1.284.5 2.491 1.409 3.399.908.908 2.115 1.408 3.399 1.408 1.284 0 2.492-.5 3.401-1.408 1.874-1.874 1.874-4.924 0-6.797C109.988 28.34 108.78 27.841 107.496 27.841zM18.585 40.14c.24.721.533 1.433.872 2.115.205.41.125.904-.2 1.229l-3.74 3.749 6.586 6.601 1.501-.646c.39-.245.789-.474 1.193-.695.227-.125.457-.244.688-.36.408-.205.821-.4 1.24-.579l0 0c.284-.123.573-.234.862-.344.248-.094.498-.181.749-.266.469-.161.943-.306 1.423-.436.209-.056.419-.108.631-.158.501-.12 1.008-.223 1.522-.309.256-.043.511-.08.768-.115.432-.057.868-.102 1.308-.135.368-.027.736-.045 1.104-.054.09-.002.178-.008.267-.014.28-.019.567-.006.849.008l.76.032c.292.017.582.041.873.07.217.021.433.048.649.076.379.049.755.105 1.132.173.297.053.594.109.89.175.226.05.45.105.672.161l.409.101.106-.014c.248-.034.499.021.711.154l.553.346.23-.61c.091-.24.192-.476.293-.711l.282-.678c.082-.205.165-.41.257-.612.107-.237.224-.468.341-.699l.326-.659c.099-.205.198-.41.306-.611.116-.217.241-.428.366-.638l.369-.637c.117-.208.235-.416.362-.619.133-.212.274-.419.416-.625l.407-.606c.129-.196.258-.392.396-.584.159-.221.328-.434.497-.648l.44-.569c.131-.173.261-.346.4-.513.227-.275.467-.54.707-.805l.426-.479c.104-.12.208-.241.318-.357 1.008-1.066 2.097-2.075 3.236-2.998l-.336-.415.43.343c.741-.596 1.529-1.173 2.34-1.715l.238-.16v-3.998l-5.2-.086c-.452-.007-.852-.301-.996-.731-.152-.455-.385-.889-.63-1.348-.116-.216-.233-.435-.345-.663-.205-.41-.125-.904.2-1.229l3.74-3.748-6.34-6.355-3.633 3.641c-.326.326-.823.407-1.234.201-.443-.222-.964-.381-1.524-.553-.234-.071-.465-.143-.689-.217-.436-.146-.729-.553-.729-1.013V13h-8.963v5.301c0 .46-.293.867-.729 1.013-.727.244-1.436.537-2.109.874-.413.206-.909.125-1.234-.201l-3.735-3.744-6.34 6.355 3.74 3.748c.324.325.405.819.2 1.23-.224.45-.391.998-.552 1.529-.071.234-.142.466-.216.689-.161.481-.649.714-1.031.731l-5.372-.086v8.972h5.286C18.032 39.409 18.439 39.703 18.585 40.14zM26.712 27.467c1.986-1.99 4.626-3.086 7.435-3.086s5.449 1.096 7.435 3.086c4.098 4.107 4.098 10.789 0 14.896-1.986 1.99-4.626 3.086-7.435 3.086s-5.449-1.096-7.435-3.086C22.614 38.256 22.614 31.574 26.712 27.467z" fill="#ffffff" class="color000000 svgShape"></path><path d="M121.717,28.879c-0.453-0.007-0.854-0.301-0.996-0.731l0,0c-0.124-0.37-0.308-0.713-0.527-1.124
			c-0.1-0.187-0.201-0.375-0.298-0.572c-0.205-0.41-0.124-0.904,0.199-1.229l3.083-3.089l-5.191-5.203l-2.989,2.997
			c-0.326,0.328-0.821,0.41-1.234,0.201c-0.372-0.186-0.834-0.327-1.279-0.463c-0.2-0.062-0.398-0.122-0.59-0.186
			c-0.436-0.146-0.729-0.553-0.729-1.013v-4.368h-7.337v4.368c0,0.46-0.293,0.867-0.729,1.013c-0.611,0.204-1.209,0.452-1.779,0.737
			c-0.41,0.208-0.909,0.126-1.234-0.201l-3.078-3.085l-5.191,5.203l3.082,3.089c0.324,0.325,0.405,0.819,0.199,1.229
			c-0.183,0.368-0.316,0.806-0.474,1.32c-0.056,0.187-0.114,0.372-0.174,0.553c-0.145,0.437-0.552,0.731-1.031,0.731l-4.426-0.071
			v3.546l0.289,0.149c7.418,3.836,13.051,10.286,15.862,18.162l0.126,0.355h5.895v-4.368c0-0.46,0.293-0.867,0.729-1.013
			c0.372-0.124,0.719-0.31,1.126-0.528c0.185-0.1,0.372-0.201,0.567-0.298c0.412-0.205,0.909-0.125,1.234,0.201l3.166,3.173
			l5.191-5.202l-3.082-3.089c-0.324-0.325-0.405-0.819-0.199-1.23c0.284-0.573,0.531-1.173,0.736-1.785
			c0.145-0.437,0.552-0.73,1.013-0.73H126v-7.377L121.717,28.879z M112.785,37.934c-1.413,1.412-3.291,2.19-5.289,2.19
			s-3.875-0.778-5.288-2.19s-2.191-3.29-2.191-5.287s0.778-3.874,2.191-5.287c1.413-1.412,3.29-2.19,5.288-2.19
			s3.876,0.778,5.289,2.19C115.7,30.276,115.7,35.018,112.785,37.934z" fill="#ffffff" class="color000000 svgShape"></path><path d="M105.548,62.415c-0.664-0.192-1.129-0.789-1.155-1.479c-0.105-2.813-0.591-5.518-1.394-8.076
			c-0.015-0.037-0.041-0.066-0.053-0.105c-2.538-7.874-8.268-14.46-15.721-18.068c-0.085-0.041-0.155-0.101-0.229-0.154
			c-3.918-1.836-8.295-2.86-12.918-2.86c-5.722,0-11.327,1.661-16.137,4.689c-0.003,0.002-0.005,0.005-0.008,0.007
			c-0.47,0.296-0.892,0.576-1.294,0.852c-0.548,0.386-1.095,0.775-1.618,1.199c-0.578,0.469-1.137,0.956-1.676,1.462
			c-3.775,3.542-6.58,7.974-8.167,12.935c-0.136,0.424-0.441,0.772-0.845,0.962c-0.04,0.019-0.083,0.028-0.124,0.043
			c-0.341,0.128-0.714,0.136-1.061,0.02c-0.031-0.01-0.064-0.015-0.095-0.027c-0.447-0.18-0.907-0.326-1.366-0.472
			c-0.007-0.002-0.013-0.006-0.02-0.009c-0.143-0.046-0.283-0.105-0.427-0.147c-0.02-0.005-0.041-0.007-0.061-0.013
			c-0.67-0.194-1.347-0.349-2.028-0.47c-0.085-0.015-0.172-0.023-0.257-0.037c-0.595-0.098-1.193-0.174-1.792-0.217
			c-0.115-0.009-0.231-0.01-0.346-0.016c-0.571-0.032-1.141-0.042-1.711-0.025c-0.138,0.004-0.274,0.014-0.412,0.021
			c-0.577,0.03-1.153,0.078-1.725,0.157c-0.091,0.013-0.181,0.028-0.271,0.042c-0.605,0.092-1.207,0.21-1.801,0.357
			c-0.073,0.018-0.146,0.037-0.219,0.056c-0.595,0.155-1.183,0.338-1.762,0.547c-0.083,0.03-0.165,0.06-0.247,0.091
			c-0.557,0.21-1.104,0.447-1.643,0.707c-0.099,0.048-0.2,0.094-0.298,0.144c-0.522,0.263-1.033,0.554-1.533,0.864
			c-5.67,3.521-9.492,9.779-9.542,16.92c-0.004,0.624-0.371,1.189-0.939,1.447C6.966,77.256,2,84.973,2,93.423
			C2,105.321,11.655,115,23.524,115H98.12c14.752,0,26.753-12.03,26.753-26.818c0-6.14-2.123-12.141-5.979-16.898
			C115.478,67.07,110.738,63.92,105.548,62.415z M27.693,77.321c23.951-2.276,51.61-21.797,60.085-28.19l-3.872-0.787
			c-0.867-0.176-1.427-1.022-1.251-1.889c0.176-0.868,1.029-1.426,1.89-1.251l7.338,1.491c0.867,0.176,1.427,1.021,1.252,1.887
			l-1.502,7.423c-0.154,0.76-0.823,1.285-1.569,1.285c-0.105,0-0.213-0.01-0.319-0.032c-0.868-0.175-1.43-1.021-1.254-1.888
			l0.653-3.229c-0.72,0.533-1.56,1.147-2.582,1.884c-3.369,2.43-8.734,6.13-15.162,9.955c-11.316,6.736-28.031,15.07-43.403,16.531
			c-0.052,0.005-0.103,0.007-0.154,0.007c-0.816,0-1.515-0.621-1.593-1.45C26.166,78.187,26.812,77.404,27.693,77.321z
			 M40.999,107.479c0,0.885-0.717,1.602-1.603,1.602H27.921c-0.885,0-1.603-0.717-1.603-1.602V90.195
			c0-0.683,0.433-1.291,1.079-1.514l11.476-3.967c0.489-0.169,1.031-0.092,1.453,0.209c0.422,0.3,0.673,0.786,0.673,1.305V107.479z
			 M59.88,107.479c0,0.885-0.717,1.602-1.603,1.602H46.802c-0.885,0-1.603-0.717-1.603-1.602V82.657
			c0-0.683,0.433-1.291,1.079-1.514l11.475-3.967c0.49-0.168,1.031-0.091,1.453,0.209s0.673,0.786,0.673,1.305v28.789H59.88z
			 M78.76,107.479c0,0.885-0.718,1.602-1.603,1.602H65.682c-0.885,0-1.603-0.717-1.603-1.602V74.525
			c0-0.683,0.433-1.291,1.079-1.514l11.476-3.967c0.49-0.168,1.031-0.092,1.453,0.209c0.423,0.3,0.673,0.786,0.673,1.305V107.479z
			 M97.641,107.479c0,0.885-0.718,1.602-1.603,1.602H84.563c-0.885,0-1.603-0.717-1.603-1.602V66.392
			c0-0.683,0.433-1.291,1.079-1.514l11.476-3.967c0.489-0.168,1.03-0.092,1.453,0.209c0.423,0.3,0.673,0.786,0.673,1.305
			C97.641,62.425,97.641,107.479,97.641,107.479z" fill="#ffffff" class="color000000 svgShape"></path></svg>