<svg xmlns="http://www.w3.org/2000/svg" enable-background="new 0 0 512 512" viewBox="0 0 512 512" id="bar-chart"><g><g><g><path fill="#3a98ff" d="M355.321 188.5h-39.729c-4.143 0-7.5 3.357-7.5 7.5v105c0 4.143 3.357 7.5 7.5 7.5h39.729c4.143 0 7.5-3.357 7.5-7.5V196C362.821 191.857 359.464 188.5 355.321 188.5zM347.821 293.5h-24.729v-90h24.729V293.5zM196.407 196h-39.729c-4.143 0-7.5 3.357-7.5 7.5V301c0 4.143 3.357 7.5 7.5 7.5h39.729c4.143 0 7.5-3.357 7.5-7.5v-97.5C203.907 199.357 200.55 196 196.407 196zM188.907 293.5h-24.729V211h24.729V293.5zM437.312 78.597l-26.926-9.656c-3.898-1.396-8.194.628-9.592 4.527-1.398 3.899.629 8.193 4.527 9.592l10.085 3.617-75.222 36.359-9.319-48.453c-.941-4.885-6.278-7.499-10.703-5.299L73.883 191.68c-3.709 1.843-5.222 6.345-3.378 10.054 1.829 3.679 6.312 5.236 10.054 3.379l237.44-118.004 9.299 48.344c.932 4.842 6.2 7.475 10.629 5.336l83.605-40.412-3.469 9.672c-1.398 3.899.629 8.193 4.527 9.592 3.897 1.396 8.192-.624 9.592-4.527l9.656-26.925C443.238 84.289 441.207 79.993 437.312 78.597z"></path></g><g><path fill="#283954" d="M473.5,1h-435C17.822,1,1,17.822,1,38.5v330C1,389.178,17.822,406,38.5,406H211v45h-31.833
				C155.364,451,136,470.364,136,494.167v9.333c0,4.143,3.357,7.5,7.5,7.5h225c4.143,0,7.5-3.357,7.5-7.5v-9.333
				C376,470.364,356.636,451,332.833,451H301v-45h172.5c20.678,0,37.5-16.822,37.5-37.5v-330C511,17.822,494.178,1,473.5,1z
				 M38.5,16h435c12.406,0,22.5,10.094,22.5,22.5v285h-22.5V46c0-4.143-3.357-7.5-7.5-7.5H46c-4.143,0-7.5,3.357-7.5,7.5v277.5H16
				v-285C16,26.094,26.094,16,38.5,16z M458.5,323.5h-405v-270h405V323.5z M361,494.167V496H151v-1.833
				C151,478.636,163.636,466,179.167,466c16.423,0,139.45,0,153.666,0C348.364,466,361,478.636,361,494.167z M286,451h-60v-45h60
				V451z M473.5,391c-87.352,0-346.111,0-435,0C26.094,391,16,380.906,16,368.5v-30c16.713,0,462.954,0,480,0v30
				C496,380.906,485.906,391,473.5,391z"></path><path fill="#283954" d="M395.051 308.5h39.729c4.143 0 7.5-3.357 7.5-7.5V151c0-4.143-3.357-7.5-7.5-7.5h-39.729c-4.143 0-7.5 3.357-7.5 7.5v150C387.551 305.143 390.908 308.5 395.051 308.5zM402.551 158.5h24.729v135h-24.729V158.5zM236.136 308.5h39.729c4.143 0 7.5-3.357 7.5-7.5V180.5c0-4.143-3.357-7.5-7.5-7.5h-39.729c-4.143 0-7.5 3.357-7.5 7.5V301C228.636 305.143 231.993 308.5 236.136 308.5zM243.636 188h24.729v105.5h-24.729V188zM77.221 308.5h39.729c4.143 0 7.5-3.357 7.5-7.5v-67.5c0-4.143-3.357-7.5-7.5-7.5H77.221c-4.143 0-7.5 3.357-7.5 7.5V301C69.721 305.143 73.078 308.5 77.221 308.5zM84.721 241h24.729v52.5H84.721V241z"></path></g></g></g></svg>