<svg xmlns="http://www.w3.org/2000/svg" enable-background="new 0 0 32 32" viewBox="0 0 32 32" id="bell"><path d="M3.10999,25.75H10.88v0.63c0,2.82001,2.28998,5.12,5.12,5.12s5.12-2.29999,5.12-5.12v-0.63h7.77002c0.82996,0,1.5-0.67004,1.5-1.5c0-0.83002-0.67004-1.5-1.5-1.5h-1.23999V12.14996C27.65002,5.72998,22.41998,0.5,16,0.5S4.34998,5.72998,4.34998,12.14996V22.75H3.10999c-0.82996,0-1.5,0.66998-1.5,1.5C1.60999,25.07996,2.28003,25.75,3.10999,25.75z M18.12,26.38c0,1.16998-0.95001,2.12-2.12,2.12s-2.12-0.95001-2.12-2.12v-0.63H18.12V26.38z" fill="#ffffff" class="color000000 svgShape"></path></svg>