<svg xmlns="http://www.w3.org/2000/svg" viewBox="0 0 48 48" id="calculation">
  <path fill="#ffffff" d="M47.932,27.505c-.685-2.871-7.116-4.187-13.122-4.187s-12.439,1.317-13.123,4.188a1.008,1.008,0,0,0-.068.339V43.283c0,3.228,6.838,4.7,13.191,4.7S48,46.511,48,43.283V27.845A.985.985,0,0,0,47.932,27.505ZM46,39.4c0,.806-3.808,2.7-11.19,2.7S23.619,40.2,23.619,39.4V38.239c2.493,1.4,6.945,2.061,11.191,2.061s8.7-.661,11.19-2.061ZM46,35.6c0,.806-3.808,2.7-11.19,2.7s-11.191-1.892-11.191-2.7V34.446c2.493,1.4,6.945,2.061,11.191,2.061s8.7-.661,11.19-2.061Zm0-3.793c0,.806-3.808,2.7-11.19,2.7s-11.191-1.892-11.191-2.7V30.653c2.493,1.4,6.945,2.061,11.191,2.061s8.7-.661,11.19-2.061ZM34.81,25.318c7.382,0,11.19,1.891,11.19,2.7s-3.808,2.7-11.19,2.7-11.191-1.892-11.191-2.7S27.427,25.318,34.81,25.318Zm0,20.663c-7.383,0-11.191-1.891-11.191-2.7v-1.25c2.493,1.4,6.945,2.06,11.191,2.06s8.7-.661,11.19-2.06v1.25C46,44.09,42.192,45.981,34.81,45.981Z" class="color1c1c1b svgShape"></path>
  <path fill="#ffffff" d="M19.219,39.129,2,39.106,2.021,2.019l29.5.021V21.068a1,1,0,1,0,2,0V2.04A2.024,2.024,0,0,0,31.5.019H2.021A2.024,2.024,0,0,0,0,2.04V39.106a2.024,2.024,0,0,0,2.021,2.023h17.2a1,1,0,0,0,0-2Z" class="color1c1c1b svgShape"></path>
  <path fill="#ffffff" d="M29.186 5.108a1.872 1.872 0 0 0-1.871-1.869h-.864a1 1 0 0 0 0 2h.735v6.977H6.34V5.239h16.9a1 1 0 0 0 0-2H6.21A1.872 1.872 0 0 0 4.34 5.108v7.238a1.872 1.872 0 0 0 1.87 1.87H27.315a1.872 1.872 0 0 0 1.871-1.87zM11.253 16.923a1.77 1.77 0 0 0-1.768-1.768H6.107A1.77 1.77 0 0 0 4.34 16.923V20.3a1.769 1.769 0 0 0 1.767 1.767H9.485A1.77 1.77 0 0 0 11.253 20.3zm-2 3.145H6.34V17.155H9.253zM9.485 31.245H6.107A1.77 1.77 0 0 0 4.34 33.013v3.378a1.769 1.769 0 0 0 1.767 1.767H9.485a1.77 1.77 0 0 0 1.768-1.767V33.013A1.77 1.77 0 0 0 9.485 31.245zm-.232 4.913H6.34V33.245H9.253zM11.253 24.968A1.77 1.77 0 0 0 9.485 23.2H6.107A1.77 1.77 0 0 0 4.34 24.968v3.378a1.769 1.769 0 0 0 1.767 1.767H9.485a1.77 1.77 0 0 0 1.768-1.767zm-2 3.145H6.34V25.2H9.253zM18.451 15.155H15.074a1.77 1.77 0 0 0-1.768 1.768V20.3a1.77 1.77 0 0 0 1.768 1.767h3.377A1.77 1.77 0 0 0 20.219 20.3V16.923A1.77 1.77 0 0 0 18.451 15.155zm-.232 4.913H15.306V17.155h2.913zM24.04 15.155a1.77 1.77 0 0 0-1.768 1.768V20.3a1.77 1.77 0 0 0 1.768 1.767h3.378A1.77 1.77 0 0 0 29.186 20.3V16.923a1.77 1.77 0 0 0-1.768-1.768zm3.146 4.913H24.272V17.155h2.914zM18.451 31.245H15.074a1.77 1.77 0 0 0-1.768 1.768v3.378a1.77 1.77 0 0 0 1.768 1.767h3.377a1.77 1.77 0 0 0 1.768-1.767V33.013A1.77 1.77 0 0 0 18.451 31.245zm-.232 4.913H15.306V33.245h2.913zM18.451 23.2H15.074a1.77 1.77 0 0 0-1.768 1.768v3.378a1.77 1.77 0 0 0 1.768 1.767h3.377a1.77 1.77 0 0 0 1.768-1.767V24.968A1.77 1.77 0 0 0 18.451 23.2zm-.232 4.913H15.306V25.2h2.913z" class="color1c1c1b svgShape"></path>
</svg>
