<svg xmlns="http://www.w3.org/2000/svg" viewBox="0 0 32 32" id="CloudUpload"><path d="M8.553 21.9h4.941c.008-1.083-.005-3.62 0-4.67l-.601.6c-2.37 2.282-5.836-1.176-3.548-3.547l4.881-4.881c.12-.12.25-.22.39-.32.993-.627 2.46-.487 3.248.42l4.79 4.781c2.286 2.368-1.175 5.836-3.547 3.548l-.601-.601v4.67h4.94c8.778-.205 9.68-12.65 1.113-14.192-1.768-9.61-15.349-9.612-17.118 0C-1.121 9.248-.23 21.694 8.553 21.9z" fill="#ffffff" class="color000000 svgShape"></path><path d="M19.818 17.12c1.417 1.375 3.491-.708 2.125-2.126l-3.437-3.437c-.654-.551-1.598-1.969-2.506-1.884-.92-.079-1.812 1.295-2.476 1.854l-3.467 3.468c-1.364 1.42.702 3.49 2.124 2.124l2.316-2.315v15.214c.029 1.968 2.974 1.984 3.006 0V14.804c.562.56 1.748 1.749 2.315 2.315z" fill="#ffffff" class="color000000 svgShape"></path></svg>