<svg xmlns="http://www.w3.org/2000/svg" viewBox="0 0 32 32" id="CloudDownload"><path d="M8.57 21.902h4.93V13.39a2.501 2.501 0 0 1 5 0v8.51h4.93c3.93 0 7.121-3.19 7.121-7.12 0-3.55-2.61-6.5-6.01-7.04C23.86 3.64 20.29.5 16 .5S8.14 3.64 7.46 7.74c-3.401.54-6.011 3.49-6.011 7.041 0 3.93 3.19 7.12 7.12 7.12z" fill="#ffffff" class="color000000 svgShape"></path><path d="M12.19 24.072a1.51 1.51 0 0 0-2.12 0 1.51 1.51 0 0 0 0 2.12l3.43 3.43c.352.3 1.475 1.614 1.91 1.76a1.508 1.508 0 0 0 1.65-.32l1.41-1.41 3.46-3.46c1.361-1.417-.7-3.483-2.12-2.12l-2.31 2.31c-.004-1.793 0-12.991 0-12.991-.03-1.965-2.968-1.978-3 0 .002 3.337 0 12.991 0 12.991l-2.31-2.31z" fill="#ffffff" class="color000000 svgShape"></path></svg>