<svg xmlns="http://www.w3.org/2000/svg" viewBox="0 0 32 32" id="Cloud"><path style="line-height:normal;text-indent:0;text-align:start;text-decoration-line:none;text-decoration-style:solid;text-decoration-color:#000;text-transform:none;block-progression:tb;isolation:auto;mix-blend-mode:normal" fill-rule="evenodd" d="M25 5c3.32 0 6 2.68 6 6s-2.68 6-6 6-6-2.68-6-6 2.68-6 6-6zm.332 1.867a.5.5 0 0 0-.475.498l-.002.496a3.628 3.628 0 0 0-3.177 2.16 3.654 3.654 0 0 0 .715 4.006 3.624 3.624 0 0 0 3.97.842 3.648 3.648 0 0 0 2.268-3.377c.01-.676-1.01-.676-1 0 0 1.08-.65 2.047-1.645 2.451a2.617 2.617 0 0 1-2.875-.609 2.652 2.652 0 0 1-.517-2.91 2.622 2.622 0 0 1 2.26-1.565l-.003.471a.5.5 0 0 0 .877.33l.862-.986a.5.5 0 0 0 0-.656l-.858-.98a.5.5 0 0 0-.4-.17Zm-6.805 1.475A6.96 6.96 0 0 0 18 11c0 3.86 3.14 7 7 7 1.4 0 2.702-.417 3.797-1.127A4.995 4.995 0 0 1 31 21.018c-.003 2.234-1.468 4.187-3.588 4.793a2.633 2.633 0 0 1-.95.191H5.538c.086 0 .046-.016-.123-.016a.5.5 0 0 0-.035 0c-.103.01-.179.014-.229.014C2.856 26 1 24.129 1 21.799c0-2.33 1.854-4.202 4.148-4.203.48 0 .953.088 1.403.254a.5.5 0 0 0 .672-.424c.232-2.573 2.354-4.53 4.9-4.531.347 0 .694.039 1.033.113a.5.5 0 0 0 .582-.332 6.497 6.497 0 0 1 4.79-4.334z" color="#000" font-family="sans-serif" font-weight="400" overflow="visible" fill="#ffffff" class="color000000 svgShape"></path></svg>