<svg xmlns="http://www.w3.org/2000/svg" viewBox="0 0 36 36" id="Currency"><path d="M3.61 7.977h26.744l.683.011 1.358-.011c.32 0 .546.23.546.517V25.977H3.06V8.494c0-.288.226-.517.55-.517zm.507 1.068v15.924h27.766V9.045H7.02zm1 1H30.883v13.924H5.117zm10.914 2.96v.01h-.023v1h1.027c.934 0 1.405.442 1.574.99h-2.578v1h2.578c-.17.549-.64.991-1.574.991h-.353l-.004-.004-.004.004h-.666v1h.265l3.082 3.012.7-.715-2.412-2.357a2.509 2.509 0 0 0 1.992-1.93H21v-1h-1.365c-.078-.36-.244-.7-.479-1H21v-1zM1.53 26.978h13.225c.277.388.678.683 1.187.683h4.118c.509 0 .91-.295 1.187-.683h13.225c.303 0 .529.226.529.523a.516.516 0 0 1-.53.525H1.53A.516.516 0 0 1 1 27.5c0-.297.226-.523.53-.523z" color="#000" font-family="sans-serif" font-weight="400" overflow="visible" style="text-indent:0;text-align:start;line-height:normal;text-transform:none;block-progression:tb" fill="#ffffff" class="color000000 svgShape"></path></svg>