<svg xmlns="http://www.w3.org/2000/svg" viewBox="0 0 32 32" id="Download"><path d="M16 .5a1.94 1.94 0 0 0-1.938 1.938v14.418l-2.583-2.583c-.897-.872-2.05-.65-2.719.02-.67.67-.893 1.819-.015 2.725l5.879 5.88c.35.361.83.563 1.35.568h.017c.52 0 1.022-.205 1.379-.563l5.89-5.89c.871-.902.649-2.051-.02-2.721-.669-.67-1.818-.89-2.725-.014l-2.578 2.578V2.437A1.94 1.94 0 0 0 16 .5z" fill="#2a46cb" class="color000000 svgShape"></path><path d="M4.23 19.596a1.94 1.94 0 0 0-1.938 1.937v2.144c0 4.314 3.509 7.823 7.823 7.823h11.77c4.314 0 7.823-3.51 7.823-7.823v-2.144a1.94 1.94 0 0 0-1.937-1.937 1.94 1.94 0 0 0-1.938 1.937v2.144a3.952 3.952 0 0 1-3.948 3.948h-11.77a3.952 3.952 0 0 1-3.948-3.948v-2.144a1.94 1.94 0 0 0-1.938-1.937z" fill="#2a46cb" class="color000000 svgShape"></path></svg>