<?xml version="1.0" ?><svg height="48" viewBox="0 0 48 48" width="48" xmlns="http://www.w3.org/2000/svg"><defs><style>.cls-1{fill:#fff;}.cls-2{fill:#d0d7df;}.cls-3{fill:#474c54;}</style></defs><title/><g data-name="1-File-Document" id="_1-File-Document"><path class="cls-1" d="M43,14V43a4,4,0,0,1-4,4H9s-4,0-4-4V5A4,4,0,0,1,9,1H30v9a4,4,0,0,0,4,4Z"/><path class="cls-2" d="M43,14H34a4,4,0,0,1-4-4V1Z"/><path class="cls-3" d="M43.922,13.615a.994.994,0,0,0-.215-.322l-13-13A1,1,0,0,0,30,0H9A5.006,5.006,0,0,0,4,5V43a4.821,4.821,0,0,0,5,5H39a5.006,5.006,0,0,0,5-5V14A.988.988,0,0,0,43.922,13.615ZM39,46H9.005A2.853,2.853,0,0,1,6,43V5A3,3,0,0,1,9,2H29.586l11,11H34a3,3,0,0,1-3-3V7a1,1,0,0,0-2,0v3a5.006,5.006,0,0,0,5,5h8V43A3,3,0,0,1,39,46Z"/><path class="cls-3" d="M37,24H11a1,1,0,0,0,0,2H37a1,1,0,0,0,0-2Z"/><path class="cls-3" d="M37,30H11a1,1,0,0,0,0,2H37a1,1,0,0,0,0-2Z"/><path class="cls-3" d="M37,35H35a1,1,0,0,0,0,2h2a1,1,0,0,0,0-2Z"/><path class="cls-3" d="M31,35H29a1,1,0,0,0,0,2h2a1,1,0,0,0,0-2Z"/></g></svg>