<svg width="43" height="42" viewBox="0 0 43 42" fill="none" xmlns="http://www.w3.org/2000/svg">
<path d="M21.5 42C33.098 42 42.5 32.598 42.5 21C42.5 9.40202 33.098 0 21.5 0C9.90202 0 0.5 9.40202 0.5 21C0.5 32.598 9.90202 42 21.5 42Z" fill="white"/>
<path d="M4.92651 33.8882C8.76886 38.8225 14.7611 42.0001 21.4998 42.0001C28.2385 42.0001 34.231 38.8225 38.0737 33.8882H4.92651Z" fill="white"/>
<path d="M34.408 7.79272H37.5425V9.25222H34.408V7.79272ZM38.9092 9.25255H37.9084V7.8974C38.2628 8.3338 38.5942 8.78662 38.9092 9.25255Z" fill="white"/>
<path d="M35.7464 5.57449H34.4077V4.43262C34.8703 4.79355 35.3166 5.17418 35.7464 5.57449ZM30.8528 5.9899H32.478V7.4494H30.8528V5.9899ZM32.8452 5.9899H35.9797V7.4494H32.8452V5.9899Z" fill="white"/>
<path d="M29.2861 16.8474H32.4207V18.3069H29.2861V16.8474ZM32.7876 16.8474H34.4128V18.3069H32.7876V16.8474Z" fill="white"/>
<path d="M25.73 15.0449H27.3552V16.5044H25.73V15.0449ZM27.7224 15.0452H30.8569V16.5047H27.7224V15.0452Z" fill="white"/>
<path d="M11.813 5.22437H14.9476V6.68387H11.813V5.22437ZM15.3147 5.22437H16.9399V6.68387H15.3147V5.22437Z" fill="white"/>
<path d="M14.9463 1.54846V3.00534H11.8127V2.36221C12.3837 2.06362 12.971 1.79127 13.5748 1.54846H14.9463ZM9.88336 3.50376V4.88188H8.25586V4.7047C8.77758 4.27813 9.32227 3.87782 9.88336 3.50376ZM10.2495 3.42173H13.3841V4.88123H10.2495V3.42173Z" fill="white"/>
<path d="M7.76001 22.3267H10.8946V23.7862H7.76001V22.3267ZM11.2618 22.3267H12.887V23.7862H11.2618V22.3267Z" fill="white"/>
<path d="M7.76015 18.6495H10.8947V20.109H7.76015V18.6495ZM4.20459 20.5241H5.82979V21.9836H4.20459V20.5241ZM6.19696 20.5241H9.33154V21.9836H6.19696V20.5241Z" fill="white"/>
<path d="M41.4129 27.6799C41.2488 28.1754 41.0651 28.661 40.8617 29.1401H38.7485V27.6799H41.4129Z" fill="white"/>
<path d="M38.7492 24.0029H41.8837V25.4624H38.7492V24.0029ZM35.1936 25.8772H36.8188V27.3367H35.1936V25.8772ZM37.186 25.8772H40.3206V27.3367H37.186V25.8772Z" fill="white"/>
<path d="M30.0714 9.89355V32.1066C30.0714 32.7158 29.8295 33.3 29.3987 33.7308C28.968 34.1615 28.3837 34.4035 27.7746 34.4035H12.9272C12.3181 34.4035 11.7339 34.1615 11.3031 33.7308C10.8724 33.3 10.6304 32.7158 10.6304 32.1066V9.89355C10.6304 9.28439 10.8724 8.70017 11.3031 8.26942C11.7339 7.83867 12.3181 7.59668 12.9272 7.59668H27.7746C28.3837 7.59668 28.968 7.83867 29.3987 8.26942C29.8295 8.70017 30.0714 9.28439 30.0714 9.89355Z" fill="white"/>
<path d="M34.0101 28.9614C34.0101 31.9657 31.5754 34.4037 28.5678 34.4037C25.5638 34.4037 23.1292 31.9657 23.1292 28.9614C23.1292 25.9571 25.5638 23.5227 28.5678 23.5227C31.5754 23.5227 34.0101 25.9574 34.0101 28.9614Z" fill="white"/>
<path d="M29.2514 9.89355V32.1066C29.2514 32.7158 29.0094 33.3 28.5786 33.7308C28.1479 34.1615 27.5637 34.4035 26.9545 34.4035H12.1072C11.498 34.4035 10.9138 34.1615 10.483 33.7308C10.0523 33.3 9.8103 32.7158 9.8103 32.1066V9.89355C9.8103 9.28439 10.0523 8.70017 10.483 8.26942C10.9138 7.83867 11.498 7.59668 12.1072 7.59668H26.9545C27.5637 7.59668 28.1479 7.83867 28.5786 8.26942C29.0094 8.70017 29.2514 9.28439 29.2514 9.89355Z" fill="#EDEDED"/>
<path d="M29.2524 9.89234V32.1064C29.2524 33.3762 28.2221 34.4033 26.9555 34.4033H12.1079C11.2318 34.4033 10.4705 33.9144 10.0801 33.1925C10.4049 33.3631 10.7757 33.4616 11.1662 33.4616H26.0105C27.2804 33.4616 28.3074 32.4312 28.3074 31.1647V8.95062C28.3074 8.56016 28.2123 8.19266 28.0384 7.87109C28.7602 8.255 29.2524 9.01625 29.2524 9.89234Z" fill="#DDDCE0"/>
<path d="M26.1746 18.0744C26.1739 18.2696 26.0958 18.4565 25.9575 18.5941C25.8191 18.7317 25.6318 18.8088 25.4367 18.8084H13.6212C13.2153 18.8084 12.8872 18.4803 12.8872 18.0744C12.8872 17.6685 13.2153 17.3365 13.6212 17.3365H25.4367C25.6323 17.337 25.8197 17.4149 25.958 17.5533C26.0963 17.6917 26.1742 17.8788 26.1746 18.0744ZM23.7137 14.193C23.7131 14.3882 23.635 14.5752 23.4967 14.7129C23.3583 14.8506 23.1709 14.9277 22.9757 14.9274H16.0822C15.6763 14.9274 15.3481 14.5993 15.3481 14.193C15.3481 13.7871 15.6763 13.4551 16.0822 13.4551H22.9757C23.1714 13.4556 23.3588 13.5336 23.4971 13.6719C23.6354 13.8103 23.7133 13.9974 23.7137 14.193ZM26.1746 21.9558C26.1739 22.151 26.0958 22.3378 25.9575 22.4755C25.8191 22.6131 25.6318 22.6902 25.4367 22.6898H13.6212C13.2153 22.6898 12.8872 22.3617 12.8872 21.9558C12.8872 21.5496 13.2153 21.2175 13.6212 21.2175H25.4367C25.6323 21.2181 25.8197 21.296 25.958 21.4344C26.0963 21.5727 26.1742 21.7602 26.1746 21.9558ZM26.1746 25.8369C26.174 26.0321 26.096 26.2191 25.9576 26.3567C25.8192 26.4944 25.6319 26.5716 25.4367 26.5712H13.6212C13.4314 26.5632 13.252 26.4822 13.1205 26.345C12.9891 26.2079 12.9157 26.0252 12.9157 25.8352C12.9157 25.6452 12.9891 25.4626 13.1205 25.3255C13.252 25.1883 13.4314 25.1073 13.6212 25.0992H25.4367C25.6322 25.0998 25.8195 25.1776 25.9578 25.3159C26.0961 25.4541 26.174 25.6414 26.1746 25.8369ZM26.1746 29.7183C26.1739 29.9134 26.0958 30.1003 25.9575 30.2379C25.8191 30.3755 25.6318 30.4526 25.4367 30.4523H13.6212C13.2153 30.4523 12.8872 30.1242 12.8872 29.7183C12.8872 29.312 13.2153 28.98 13.6212 28.98H25.4367C25.6323 28.9805 25.8197 29.0585 25.958 29.1968C26.0963 29.3352 26.1742 29.5227 26.1746 29.7183Z" fill="#DDDCE0"/>
<path d="M17.7902 9.11177H12.9956C12.7771 9.11177 12.5986 8.93295 12.5986 8.71474C12.5986 8.49621 12.7771 8.31738 12.9956 8.31738H17.7902C18.0087 8.31738 18.1872 8.49621 18.1872 8.71441C18.1872 8.93295 18.0087 9.11177 17.7902 9.11177ZM21.5026 9.11177H19.0892C18.8707 9.11177 18.6919 8.93295 18.6919 8.71474C18.6919 8.49588 18.8707 8.31738 19.0889 8.31738H21.5026C21.7211 8.31738 21.8996 8.49621 21.8996 8.71441C21.8996 8.93295 21.7211 9.11177 21.5026 9.11177ZM10.5918 17.1085V12.3133C10.5918 12.0948 10.7706 11.9163 10.9888 11.9163C11.2074 11.9163 11.3862 12.0948 11.3862 12.3133V17.1079C11.3862 17.3264 11.2074 17.5049 10.9892 17.5049C10.7706 17.5049 10.5921 17.3264 10.5921 17.1079L10.5918 17.1085ZM10.5918 20.8206V18.4072C10.5918 18.1887 10.7706 18.0102 10.9888 18.0102C11.2074 18.0102 11.3862 18.1887 11.3862 18.4072V20.8206C11.3862 21.0391 11.2074 21.2176 10.9892 21.2176C10.7706 21.2176 10.5918 21.0391 10.5918 20.8206Z" fill="white"/>
<path d="M33.1898 28.9614C33.1898 31.9657 30.7551 34.4037 27.7475 34.4037C24.7435 34.4037 22.3088 31.9657 22.3088 28.9614C22.3088 25.9571 24.7435 23.5227 27.7475 23.5227C30.7551 23.5227 33.1898 25.9574 33.1898 28.9614Z" fill="#705C85"/>
<path d="M23.6474 31.3547C23.5973 31.3548 23.5481 31.341 23.5052 31.315C23.4624 31.2889 23.4276 31.2516 23.4046 31.207C23.0424 30.5139 22.8538 29.7433 22.855 28.9613C22.855 28.8889 22.8837 28.8195 22.9349 28.7683C22.9861 28.7171 23.0556 28.6883 23.128 28.6883C23.2004 28.6883 23.2698 28.7171 23.321 28.7683C23.3722 28.8195 23.401 28.8889 23.401 28.9613C23.401 29.6602 23.565 30.3312 23.8892 30.9563C23.9108 30.9979 23.9213 31.0443 23.9198 31.0911C23.9182 31.1379 23.9046 31.1835 23.8803 31.2235C23.856 31.2635 23.8218 31.2966 23.781 31.3196C23.7403 31.3426 23.6942 31.3546 23.6474 31.3547ZM23.336 27.8624C23.2932 27.8624 23.251 27.8523 23.2128 27.833C23.1746 27.8137 23.1415 27.7856 23.1161 27.7511C23.0907 27.7167 23.0738 27.6767 23.0667 27.6345C23.0596 27.5922 23.0625 27.5489 23.0752 27.5081C23.5355 26.0315 24.683 24.847 26.1441 24.3384C26.178 24.3266 26.2138 24.3216 26.2496 24.3237C26.2854 24.3258 26.3204 24.3349 26.3527 24.3506C26.385 24.3662 26.4139 24.388 26.4377 24.4148C26.4615 24.4416 26.4798 24.4728 26.4916 24.5067C26.5034 24.5406 26.5083 24.5764 26.5062 24.6122C26.5042 24.648 26.495 24.683 26.4794 24.7153C26.4638 24.7476 26.4419 24.7764 26.4151 24.8003C26.3884 24.8241 26.3571 24.8424 26.3233 24.8542C25.6809 25.079 25.0999 25.4506 24.6265 25.9395C24.1531 26.4285 23.8004 27.0212 23.5965 27.6705C23.5792 27.726 23.5446 27.7746 23.4977 27.8092C23.4509 27.8437 23.3942 27.8623 23.336 27.8624ZM29.2564 24.8726C29.2259 24.8725 29.1956 24.8673 29.1668 24.8571C28.7028 24.6963 28.2251 24.6143 27.7477 24.6143C27.711 24.6156 27.6745 24.6095 27.6403 24.5963C27.6061 24.5832 27.5749 24.5633 27.5485 24.5378C27.5222 24.5124 27.5012 24.4819 27.4869 24.4481C27.4726 24.4144 27.4652 24.3781 27.4652 24.3415C27.4652 24.3048 27.4726 24.2686 27.4869 24.2348C27.5012 24.2011 27.5222 24.1706 27.5485 24.1451C27.5749 24.1197 27.6061 24.0998 27.6403 24.0866C27.6745 24.0735 27.711 24.0674 27.7477 24.0686C28.2861 24.0686 28.8239 24.1605 29.346 24.3416C29.4073 24.3624 29.4593 24.4044 29.4925 24.4601C29.5258 24.5157 29.5381 24.5814 29.5273 24.6453C29.5165 24.7092 29.4833 24.7671 29.4337 24.8088C29.384 24.8504 29.3212 24.873 29.2564 24.8726Z" fill="#8B79A3"/>
<path opacity="0.5" d="M33.1885 28.9616C33.1885 31.9646 30.7561 34.4026 27.7479 34.4026C26.9515 34.4042 26.1646 34.2297 25.4435 33.8918C24.7224 33.5539 24.0848 33.0609 23.5764 32.448C24.5504 33.2595 25.7786 33.7029 27.0463 33.7007C30.0546 33.7007 32.487 31.2628 32.487 28.2601C32.487 26.9361 32.0145 25.7237 31.2286 24.782C31.8429 25.2914 32.3371 25.9302 32.6759 26.6527C33.0147 27.3752 33.1897 28.1636 33.1885 28.9616Z" fill="#504263"/>
<path d="M29.2421 29.1343H28.6944V31.212C28.6944 31.3695 28.5665 31.4975 28.409 31.4975H27.0906C27.0531 31.4975 27.0159 31.4901 26.9813 31.4757C26.9467 31.4614 26.9152 31.4404 26.8887 31.4138C26.8622 31.3873 26.8412 31.3559 26.8268 31.3212C26.8125 31.2866 26.8051 31.2495 26.8051 31.212V29.134H26.2558C25.8893 29.134 25.674 28.7248 25.8765 28.421L27.3718 26.2107C27.4133 26.1486 27.4696 26.0976 27.5355 26.0624C27.6014 26.0272 27.675 26.0088 27.7498 26.0088C27.8245 26.0088 27.8981 26.0272 27.964 26.0624C28.03 26.0976 28.0862 26.1486 28.1278 26.2107L29.6207 28.421C29.6672 28.4897 29.6941 28.5698 29.6985 28.6526C29.7029 28.7355 29.6846 28.818 29.6457 28.8913C29.6068 28.9646 29.5487 29.0259 29.4776 29.0686C29.4064 29.1114 29.325 29.1343 29.2421 29.1343Z" fill="white"/>
</svg>
