<svg xmlns="http://www.w3.org/2000/svg" viewBox="0 0 64 64" id="GraphRecord"><path d="M61,0H3A2.2,2.2,0,0,0,.81,2.2V61.8A2.2,2.2,0,0,0,3,64H61a2.2,2.2,0,0,0,2.19-2.2V2.2A2.2,2.2,0,0,0,61,0Zm-.31,61.5H3.31V2.5H60.69Z" fill="#ffffff" class="color000000 svgShape"></path><rect width="4.59" height="1.63" x="51.9" y="15.68" fill="#ffffff" class="color000000 svgShape"></rect><path d="M56.49,12a1.07,1.07,0,0,0-1.15-1H53.05a1.08,1.08,0,0,0-1.15,1v2.74h4.59Z" fill="#ffffff" class="color000000 svgShape"></path><rect width="4.59" height="14.15" x="51.9" y="18.21" fill="#ffffff" class="color000000 svgShape"></rect><path d="M7.11,59.51H56.45a.58.58,0,0,0,0-1.16H7.69V56L16,52.39l17.08,0,3.62,2.06a.54.54,0,0,0,.28.08.53.53,0,0,0,.3-.09l3.29-2H56.45a.58.58,0,1,0,0-1.16h-14l5.75-3.55,8.7.65a.59.59,0,0,0,.58-.53.57.57,0,0,0-.53-.62l-8.87-.67a.65.65,0,0,0-.3.09l-7.5,4.63-6.86,0-7.35-4.19a.54.54,0,0,0-.28-.08.59.59,0,0,0-.23.05l-9.77,4.2H7.69v-.88l8-2.33a.57.57,0,0,0,.37-.34l1-2.41H56.45a.58.58,0,0,0,0-1.16h-39l2.39-6,3.92,0,3.3,3.94a.6.6,0,0,0,.5.2h0a.58.58,0,0,0,.45-.36l1.47-3.74H56.45a.58.58,0,0,0,0-1.16h-2l2.06-3.68H51.9l2,3.59L44,35.16,42.39,31h8a.58.58,0,0,0,0-1.16H41.93l-2.39-6H50.37a.58.58,0,0,0,0-1.16H39.08l-1.85-4.61a.64.64,0,0,0-.6-.37.56.56,0,0,0-.47.38l-1.81,4.6H7.69v-6H50.37a.58.58,0,0,0,.58-.58.57.57,0,0,0-.58-.57H7.69v-6H56.45A.58.58,0,0,0,57,9a.57.57,0,0,0-.58-.57H7.69V5.07a.58.58,0,0,0-.58-.58.57.57,0,0,0-.57.58V58.93A.57.57,0,0,0,7.11,59.51Zm31.24-7.12-1.42.87-1.54-.87ZM25.73,48.2l5.31,3H18.67ZM20.33,37l.81-2,1.71,2Zm7,3.58-2-2.42h3Zm15.72-4.74a.58.58,0,0,0,.43.36L48,37H30l2.35-6h8.81ZM36.7,19.92l1.13,2.83H35.59Zm-1.57,4H38.3l2.38,6H32.79Zm-27.44,0H33.9l-2.35,6H7.69Zm0,7.12H31.1l-2.35,6-4.36,0-3-3.56a.58.58,0,0,0-.44-.21h-.1a.59.59,0,0,0-.44.36L19.09,37H7.69Zm0,7.12H18.63l-2.39,6H7.69Zm0,7.12h8.1L15.14,47,7.69,49.15Zm0,7.12h5.37l-5.37,2.3Z" fill="#ffffff" class="color000000 svgShape"></path></svg>