<svg xmlns="http://www.w3.org/2000/svg" viewBox="0 0 32 32" id="report"><path d="M26.93 7.67v-.09a1.07 1.07 0 0 0-.19-.28l-6-6a1.07 1.07 0 0 0-.28-.19.32.32 0 0 0-.09 0 .88.88 0 0 0-.31-.11H6a1 1 0 0 0-1 1v28a1 1 0 0 0 1 1h20a1 1 0 0 0 1-1V7.94a1.31 1.31 0 0 0-.07-.27ZM23.59 7H21V4.41ZM25 29H7V3h12v5a1 1 0 0 0 1 1h5Z" fill="#ffffff" class="color000000 svgShape"></path><path d="M9 15a1 1 0 0 0 1 1h12a1 1 0 0 0 0-2H10a1 1 0 0 0-1 1zm1 5h9a1 1 0 0 0 0-2h-9a1 1 0 0 0 0 2zm11 2H10a1 1 0 0 0 0 2h11a1 1 0 0 0 0-2zm-7-10a1 1 0 0 0 1-1V6a1 1 0 0 0-1-1H9a1 1 0 0 0-1 1v5a1 1 0 0 0 1 1zm-4-5h3v3h-3z" fill="#ffffff" class="color000000 svgShape"></path></svg>