<svg xmlns="http://www.w3.org/2000/svg" viewBox="0 0 512 512" id="map"><g><polygon fill="#00acea" points="423.2 275.5 468.4 482 370.2 446.3 369.5 446.5 342.7 241.4 343.1 241.2 423.2 275.5"></polygon><path fill="#fedb41" d="M312.1,54.3a85.371,85.371,0,0,1,0,116.8L256,229.7l-56.1-58.6c-30.8-32.4-30.8-84.7,0-116.8a76.907,76.907,0,0,1,112.2,0Zm-22.8,47.4A33.3,33.3,0,1,0,256,135,33.289,33.289,0,0,0,289.3,101.7Z"></path><polygon fill="#00efd1" points="256 476.1 256 276.4 342.7 241.4 369.5 446.5 256 478.3 255.4 478.1 256 476.1"></polygon><polygon fill="#00acea" points="256 276.4 256 476.1 255.4 478.1 141.8 444 168.9 239.8 256 276.4"></polygon><polygon fill="#00efd1" points="168.9 239.8 141.8 444 43.6 480.6 88.8 274.1 168.9 239.8"></polygon></g></svg>