<svg xmlns="http://www.w3.org/2000/svg" viewBox="0 0 512 512" id="Map"><path d="M437.79 7A54.69 54.69 0 0 0 411 0H55a54.69 54.69 0 0 0-26.79 7L233 211.79zM7 28.21A54.69 54.69 0 0 0 0 55v356a54.69 54.69 0 0 0 7 26.79L211.79 233zM232 337c0-85.47 69.53-155 155-155a154 154 0 0 1 79 21.69V55a54.69 54.69 0 0 0-7-26.79L28.21 459A54.69 54.69 0 0 0 55 466h222.2c-.31-.47-.62-.92-.94-1.39C248.55 422.7 232 375 232 337z" fill="#ffffff" class="color000000 svgShape"></path><circle cx="387" cy="327" r="25" fill="#ffffff" class="color000000 svgShape"></circle><path d="M387 212a125.14 125.14 0 0 0-125 125c0 31.86 15.05 74.42 39.29 111.06C328.16 488.69 359.4 512 387 512s58.84-23.31 85.71-63.94C497 411.42 512 368.86 512 337a125.14 125.14 0 0 0-125-125Zm0 170a55 55 0 1 1 55-55 55.06 55.06 0 0 1-55 55Z" fill="#ffffff" class="color000000 svgShape"></path></svg>