<svg xmlns="http://www.w3.org/2000/svg" fill-rule="evenodd" stroke-linejoin="round" stroke-miterlimit="2" clip-rule="evenodd" viewBox="0 0 64 64" id="internet">
  <g transform="translate(-1928 -168)" fill="#ffffff" class="color000000 svgShape">
    <path d="M1960,170C1943.44,170 1930,183.443 1930,200L1930,200C1930,216.557 1943.44,230 1960,230C1976.56,230 1990,216.557 1990,200C1990,183.443 1976.56,170 1960,170C1960,170 1960,170 1960,170ZM1958,214.015C1955.08,214.056 1952.16,214.186 1949.24,214.406C1950.17,217.126 1951.36,219.504 1952.76,221.415C1954.3,223.519 1956.06,225.045 1958,225.677L1958,214.015ZM1962,214.013L1962,225.677C1963.94,225.045 1965.7,223.519 1967.24,221.415C1968.64,219.502 1969.83,217.122 1970.77,214.398C1967.85,214.179 1964.92,214.052 1962,214.013ZM1945.16,214.772C1943.16,214.981 1941.15,215.232 1939.15,215.528C1941.83,219.117 1945.41,221.992 1949.56,223.815L1949.53,223.775C1947.77,221.368 1946.28,218.303 1945.16,214.772ZM1974.84,214.764C1973.73,218.297 1972.23,221.366 1970.47,223.775L1970.44,223.815C1974.59,221.992 1978.17,219.116 1980.85,215.524C1978.85,215.226 1976.85,214.973 1974.84,214.764ZM1934.08,202C1934.34,205.519 1935.31,208.844 1936.85,211.835C1939.28,211.447 1941.7,211.122 1944.13,210.859C1943.53,208.088 1943.15,205.11 1943.04,202L1934.08,202ZM1976.96,202C1976.85,205.108 1976.47,208.083 1975.87,210.851C1978.3,211.115 1980.73,211.442 1983.15,211.833C1984.69,208.843 1985.66,205.519 1985.92,202L1976.96,202ZM1947.04,202C1947.16,204.99 1947.53,207.845 1948.13,210.48C1951.42,210.214 1954.71,210.06 1958,210.014L1958,202L1947.04,202ZM1972.96,202L1962,202L1962,210.013C1965.29,210.055 1968.59,210.207 1971.87,210.472C1972.47,207.84 1972.85,204.988 1972.96,202ZM1983.15,188.167C1980.73,188.558 1978.3,188.885 1975.87,189.149C1976.47,191.917 1976.85,194.892 1976.96,198L1985.92,198C1985.66,194.481 1984.69,191.156 1983.15,188.167ZM1971.87,189.528C1968.58,189.793 1965.29,189.945 1962,189.988L1962,198L1972.96,198C1972.85,195.013 1972.47,192.161 1971.87,189.528ZM1948.13,189.52C1947.53,192.155 1947.16,195.01 1947.04,198L1958,198L1958,189.986C1954.71,189.94 1951.42,189.786 1948.13,189.52ZM1936.85,188.165C1935.31,191.156 1934.34,194.481 1934.08,198L1943.04,198C1943.15,194.889 1943.53,191.912 1944.13,189.141C1941.7,188.878 1939.28,188.553 1936.85,188.165ZM1962,174.323L1962,185.987C1964.92,185.948 1967.85,185.821 1970.77,185.602C1969.83,182.878 1968.64,180.498 1967.24,178.585C1965.7,176.481 1963.94,174.955 1962,174.323ZM1958,174.323C1956.06,174.955 1954.3,176.481 1952.76,178.585C1951.36,180.496 1950.17,182.874 1949.24,185.594C1952.16,185.814 1955.08,185.944 1958,185.985L1958,174.323ZM1970.44,176.185L1970.47,176.225C1972.23,178.634 1973.73,181.703 1974.84,185.236C1976.85,185.027 1978.85,184.774 1980.85,184.476C1978.17,180.885 1974.59,178.009 1970.44,176.185ZM1949.56,176.185C1945.41,178.008 1941.83,180.883 1939.15,184.472C1941.16,184.768 1943.16,185.02 1945.16,185.228C1946.28,181.697 1947.77,178.632 1949.53,176.225L1949.56,176.185Z" fill="#ffffff" class="color000000 svgShape"></path>
  </g>
</svg>
