<svg xmlns="http://www.w3.org/2000/svg" viewBox="0 0 90 90" id="MultiUser"><defs><linearGradient id="a" x2="1" y1=".5" y2=".5" gradientUnits="objectBoundingBox"><stop offset="0" stop-color="#7c7c7c" class="stopColoree0a79 svgShape"></stop><stop offset="1" stop-color="#808080" class="stopColorff6900 svgShape"></stop></linearGradient></defs><g transform="translate(-286 -470)" fill="#000000" class="color000000 svgShape"><circle cx="45" cy="45" r="45" fill="url(#a)" transform="translate(286 470)"></circle><path fill="#ffffff" d="M346.812 524.878a4.894 4.894 0 1 0-6.826 0 7.2 7.2 0 0 0-1.726 1.315l-5.854-4.683v-7.439h4.894a1.129 1.129 0 0 0 1.129-1.129v-2.259a7.159 7.159 0 0 0-3.74-6.283 4.894 4.894 0 1 0-6.826 0 7.159 7.159 0 0 0-3.74 6.285v2.259a1.129 1.129 0 0 0 1.129 1.129h4.894v7.437l-5.854 4.683a7.2 7.2 0 0 0-1.726-1.315 4.894 4.894 0 1 0-6.826 0 7.159 7.159 0 0 0-3.74 6.286v2.259a1.129 1.129 0 0 0 1.129 1.129h12.048a1.129 1.129 0 0 0 1.129-1.129v-2.259a7.11 7.11 0 0 0-.715-3.116l5.685-4.548 5.685 4.548a7.11 7.11 0 0 0-.715 3.117v2.259a1.129 1.129 0 0 0 1.129 1.129h12.048a1.129 1.129 0 0 0 1.129-1.129v-2.26a7.159 7.159 0 0 0-3.74-6.286Zm-15.536-26.619a2.635 2.635 0 1 1-2.635 2.635 2.638 2.638 0 0 1 2.635-2.635Zm-4.894 12.424a4.894 4.894 0 0 1 9.789 0v1.129h-9.789Zm-7.229 8.057a2.635 2.635 0 1 1-2.635 2.635 2.638 2.638 0 0 1 2.635-2.635Zm4.894 13.553h-9.788v-1.129a4.894 4.894 0 0 1 9.789 0ZM343.4 518.74a2.635 2.635 0 1 1-2.635 2.635 2.638 2.638 0 0 1 2.635-2.635Zm4.894 13.553H338.5v-1.129a4.894 4.894 0 0 1 9.789 0Z" class="colorffffff svgShape"></path></g></svg>