<svg xmlns="http://www.w3.org/2000/svg" viewBox="0 0 64 64" id="Office">
  <path d="M17.26 40.6h7.8v12.66h-7.8z" fill="#ffffff" class="color000000 svgShape"></path>
  <path d="M2.5 6.1v47.4h11.76V37.6h13.8v15.9h11.76V6.1H2.5zm14.24 24.58H9.66v-3h7.08v3zm0-6.98H9.66v-3h7.08v3zm0-6.98H9.66v-3h7.08v3zm15.64 13.96H25.3v-3h7.08v3zm0-6.98H25.3v-3h7.08v3zm0-6.98H25.3v-3h7.08v3zm10.44 2.46V53.5H61.5V19.18H42.82zM57.98 39.1H46.34v-3h11.64v3zm0-9H46.34v-3h11.64v3z" fill="#ffffff" class="color000000 svgShape"></path>
</svg>
