<?xml version="1.0" ?><svg data-name="Layer 3" id="Layer_3" viewBox="0 0 32 32" xmlns="http://www.w3.org/2000/svg"><defs><style>.cls-1,.cls-2{fill:none;stroke:#0832ff;stroke-linecap:round;stroke-linejoin:round;}.cls-1{stroke-width:2px;}.cls-3{fill:#0832ff;}</style></defs><title/><path class="cls-1" d="M10,21H6a1,1,0,0,1-1-1V11a1,1,0,0,1,1-1H26a1,1,0,0,1,1,1v9a1,1,0,0,1-1,1H22"/><rect class="cls-1" height="8" width="12" x="10" y="18"/><line class="cls-2" x1="14" x2="18" y1="20.5" y2="20.5"/><line class="cls-2" x1="14" x2="18" y1="22.5" y2="22.5"/><rect class="cls-1" height="4" width="12" x="10" y="6"/><line class="cls-1" x1="9" x2="23" y1="18" y2="18"/><circle class="cls-3" cx="23" cy="14" r="1"/><rect class="cls-3" height="2" width="12" x="10" y="6"/></svg>