<svg xmlns="http://www.w3.org/2000/svg" viewBox="0 0 512 512" id="survey"><path fill="#d1d1d6" fill-rule="evenodd" d="M178.059 357.834h155.886v82.951H178.059z" clip-rule="evenodd"></path><path fill="#b1b1b5" fill-rule="evenodd" d="M256.002 357.834h77.943v82.951h-77.943z" clip-rule="evenodd"></path><path fill="#eceff1" fill-rule="evenodd" d="M46.132 30.438h419.739c20.972 0 38.131 17.159 38.131 38.131v262.32c0 20.972-17.159 38.131-38.131 38.131H46.132c-20.972 0-38.131-17.159-38.131-38.131V68.569c.001-20.972 17.159-38.131 38.131-38.131z" clip-rule="evenodd"></path><path fill="#d1d1d6" fill-rule="evenodd" d="M256.002 30.438h209.87c20.972 0 38.131 17.159 38.131 38.131v262.32c0 20.972-17.159 38.131-38.131 38.131h-209.87V30.438z" clip-rule="evenodd"></path><path fill="#837683" fill-rule="evenodd" d="M45.175 62.324h421.652c2.909 0 5.288 2.38 5.288 5.288v237.177H39.887V67.612c0-2.908 2.38-5.288 5.288-5.288z" clip-rule="evenodd"></path><path fill="#685e68" fill-rule="evenodd" d="M256.002 62.324h210.826c2.909 0 5.288 2.38 5.288 5.288v237.177H256.002V62.324z" clip-rule="evenodd"></path><path fill="#eceff1" fill-rule="evenodd" d="M97.501 481.562h317.001c5.508 0 10-4.492 10-10v-15.981c0-14.289-14.633-25.981-32.517-25.981H120.019c-17.885 0-32.517 11.691-32.517 25.981v15.981c0 5.508 4.492 10 9.999 10z" clip-rule="evenodd"></path><path fill="#d1d1d6" fill-rule="evenodd" d="M256.002 481.562h158.5c5.508 0 10-4.492 10-10v-15.981c0-14.289-14.633-25.981-32.517-25.981H256.002v51.962z" clip-rule="evenodd"></path><g fill-rule="evenodd" clip-rule="evenodd"><circle cx="256.002" cy="183.556" r="78.86" fill="#ffd064" transform="rotate(-78.691 255.997 183.553)"></circle><circle cx="256.002" cy="183.556" r="63.512" fill="#ffe177" transform="rotate(-63.435 256.01 183.562)"></circle><path fill="#fd4755" d="m256.006 183.563 78.856.021v-.028c0-43.553-35.307-78.86-78.86-78.86v78.86l.004.007z"></path><path fill="#fe646f" d="m256.006 183.563 63.508.017v-.024c0-35.077-28.435-63.512-63.512-63.512v63.512l.004.007z"></path><path fill="#60b7ff" d="m334.862 183.584-78.856-.021 39.965 67.988c23.266-13.706 38.881-39.012 38.891-67.967z"></path><path fill="#8ac9fe" d="m319.513 183.58-63.508-.017 32.184 54.751c18.738-11.038 31.316-31.415 31.324-54.734z"></path></g><path fill-rule="evenodd" d="M247.982 113.161v70.4c0 1.419.424 2.82 1.132 4.049l35.666 60.681c-8.822 3.92-18.541 6.129-28.779 6.129-39.063 0-70.861-31.789-70.861-70.859.001-36.371 27.553-66.41 62.842-70.4zm78.409 62.43c-3.68-32.711-29.675-58.74-62.416-62.43v62.4l62.416.03zm-27.835 64.58c15.144-11.42 25.571-28.78 27.835-48.58l-56.425-.029 28.59 48.609zm-42.554 30.249c47.886 0 86.855-38.97 86.855-86.859 0-47.9-38.969-86.861-86.855-86.861-47.885 0-86.854 38.96-86.854 86.861-.001 47.89 38.968 86.859 86.854 86.859zm239.994 60.471V68.571c0-16.61-13.493-30.128-30.147-30.128H46.155c-16.654 0-30.147 13.518-30.147 30.128v262.32c0 16.61 13.493 30.13 30.147 30.13H465.85c16.653 0 30.146-13.52 30.146-30.13zM325.967 421.6h-139.93v-44.58h139.93v44.58zm90.534 33.981v17.979H95.503v-17.979c0-9.751 11.228-17.979 24.532-17.979h271.934c13.304 0 24.532 8.228 24.532 17.979zM465.849 22.44H46.155C20.679 22.44.015 43.129.015 68.571v262.32c0 25.439 20.664 46.13 46.14 46.13h123.889V421.6h-50.009c-22.362 0-40.526 15.241-40.526 33.981v25.979c0 4.421 3.586 8 7.973 8h337.039c4.388 0 7.973-3.579 7.973-8v-25.979c0-18.74-18.164-33.981-40.526-33.981H341.96v-44.58h123.889c25.476 0 46.14-20.69 46.14-46.13V68.571c0-25.441-20.664-46.131-46.14-46.131zm-1.745 274.35V70.322H47.9V296.79h416.204zm2.736-242.468H45.164c-7.313 0-13.257 5.969-13.257 13.289V304.79c0 4.421 3.538 8 7.973 8h432.244c4.435 0 7.973-3.579 7.973-8V67.611c0-7.32-5.945-13.289-13.257-13.289z" clip-rule="evenodd"></path></svg>